<?xml version="1.0" encoding="utf-8"?>
<!-- Generator: Adobe Illustrator 21.0.2, SVG Export Plug-In . SVG Version: 6.00 Build 0)  -->
<svg version="1.1" id="Layer_1" xmlns="http://www.w3.org/2000/svg" xmlns:xlink="http://www.w3.org/1999/xlink" x="0px" y="0px"
	 viewBox="0 0 22.1 22.1" style="enable-background:new 0 0 22.1 22.1;" xml:space="preserve">
<style type="text/css">
	.st0{fill:#99CCBB;}
	.st1{fill:#FFFFFF;}
</style>
<circle class="st0" cx="11" cy="11" r="11"/>
<g>
	<g>
		<path class="st1" d="M8.2,15.1l-2.8-2.8C5,11.9,5,11.3,5.3,11c0.4-0.4,0.9-0.4,1.3,0l2.8,2.8c0.4,0.4,0.4,0.9,0,1.3
			C9.1,15.4,8.5,15.4,8.2,15.1z"/>
	</g>
	<g>
		<path class="st1" d="M16.5,8.1l-6.8,6.8c-0.4,0.4-0.9,0.4-1.3,0C8,14.6,8,14,8.4,13.7l6.8-6.8c0.4-0.4,0.9-0.4,1.3,0
			C16.8,7.2,16.8,7.7,16.5,8.1z"/>
	</g>
</g>
</svg>
