<?xml version="1.0" encoding="utf-8"?>
<!-- Generator: Adobe Illustrator 22.1.0, SVG Export Plug-In . SVG Version: 6.00 Build 0)  -->
<svg version="1.1" id="Capa_1" xmlns="http://www.w3.org/2000/svg" xmlns:xlink="http://www.w3.org/1999/xlink" x="0px" y="0px"
	 viewBox="0 0 58 58" style="enable-background:new 0 0 58 58;" xml:space="preserve">
<style type="text/css">
	.st0{fill:#DCD6CD;}
	.st1{fill:#E8E3D9;}
	.st2{fill:#EFEBDE;}
	.st3{fill:#633a5a;}
	.st4{fill:#FFFFFF;}
</style>
<g>
	<g>
		<polygon class="st0" points="0,5 0,44 28,44 56,44 56,5 		"/>
		<path class="st1" d="M31,27.1c-1.6,1.5-4.3,1.5-5.9,0l-2.1-1.8C16.4,31.1,0,44,0,44h21.6h12.8H56c0,0-16.4-12.9-22.9-18.7L31,27.1
			z"/>
		<path class="st2" d="M0,5l25,22.1c1.6,1.5,4.3,1.5,5.9,0L56,5H0z"/>
	</g>
	<g>
		<circle class="st3" cx="46" cy="41" r="12"/>
		<path class="st4" d="M52.6,35.2c-0.5-0.3-1.1-0.2-1.4,0.2l-5.6,8l-3.9-3.2c-0.4-0.4-1.1-0.3-1.4,0.1c-0.4,0.4-0.3,1.1,0.1,1.4
			l4.8,3.9c0.2,0.1,0.4,0.2,0.6,0.2c0,0,0.1,0,0.1,0c0.3,0,0.5-0.2,0.7-0.4l6.2-8.9C53.1,36.1,53,35.5,52.6,35.2z"/>
	</g>
</g>
</svg>
