<?xml version="1.0" encoding="utf-8"?>
<!-- Generator: Adobe Illustrator 21.0.2, SVG Export Plug-In . SVG Version: 6.00 Build 0)  -->
<svg version="1.1" id="Layer_1" xmlns="http://www.w3.org/2000/svg" xmlns:xlink="http://www.w3.org/1999/xlink" x="0px" y="0px"
	 viewBox="0 0 22.1 22.1" style="enable-background:new 0 0 22.1 22.1;" xml:space="preserve">
<style type="text/css">
	.st0{fill:#CC4B4B;}
	.st1{fill:#FFFFFF;}
</style>
<circle class="st0" cx="11" cy="11" r="11"/>
<g>
	<g>
		<path class="st1" d="M13.8,15.1L7,8.3C6.6,7.9,6.6,7.3,7,7c0.4-0.4,0.9-0.4,1.3,0l6.8,6.8c0.4,0.4,0.4,0.9,0,1.3
			C14.7,15.4,14.2,15.4,13.8,15.1z"/>
	</g>
	<g>
		<path class="st1" d="M15.1,8.1l-6.8,6.8c-0.4,0.4-0.9,0.4-1.3,0c-0.4-0.4-0.4-0.9,0-1.3l6.8-6.8c0.4-0.4,0.9-0.4,1.3,0
			C15.4,7.2,15.4,7.7,15.1,8.1z"/>
	</g>
</g>
</svg>
